<?xml version="1.0" encoding="utf-8"?>
<!-- Generator: Adobe Illustrator 19.0.0, SVG Export Plug-In . SVG Version: 6.00 Build 0)  -->
<svg version="1.1" id="layer" xmlns="http://www.w3.org/2000/svg" xmlns:xlink="http://www.w3.org/1999/xlink" x="0px" y="0px"
	 viewBox="-153 -46 652 652" style="enable-background:new -153 -46 652 652;" xml:space="preserve">
<style type="text/css">
	.st0{fill:#7EBA00;}
	.st1{fill:#FFFFFF;}
	.st2{fill:none;stroke:#000000;stroke-width:2.0386;}
</style>
<polygon id="XMLID_7_" class="st0" points="327,402.8 -32.3,442.5 -71.9,83.2 287.4,43.5 "/>
<path id="XMLID_8_" class="st1" d="M16.4,127.4c0,18.5-15,33.5-33.5,33.5c-18.5,0-33.5-15-33.5-33.5c0-18.5,15-33.5,33.5-33.5
	C1.3,93.9,16.4,108.9,16.4,127.4"/>
<path id="XMLID_9_" class="st0" d="M5.8,132.9c0,10.6-8.6,19.2-19.2,19.2c-10.6,0-19.2-8.6-19.2-19.2c0-10.6,8.6-19.2,19.2-19.2
	C-2.8,113.7,5.8,122.3,5.8,132.9"/>
<path id="XMLID_2_" class="st1" d="M53.4,293.9l-19,2.1l-9.8-18.8l-34.6,3.9l-4.9,20.4l-18.5,2.1l24-90.2l18.5-2.1L53.4,293.9z
	 M17.5,263.3L2,232.5l-8.1,33.4L17.5,263.3z M55.1,265.2c2.2,9.5,6.6,16.5,13,20.9c6.4,4.4,15.1,6,26,4.8c7.5-0.9,13.7-2.6,18.5-5.3
	c4.8-2.7,8.3-6.3,10.6-11c2.3-4.6,3.1-9.4,2.6-14.4c-0.6-5.5-2.3-9.9-5-13.4c-2.7-3.5-6.2-6-10.5-7.7c-4.3-1.7-10.8-3.1-19.5-4.1
	c-8.7-1-14.3-2.4-16.7-4c-1.9-1.3-3-2.9-3.2-5c-0.2-2.2,0.5-4.1,2.2-5.7c2.6-2.4,6.5-3.9,11.6-4.5c4.9-0.5,8.7,0,11.4,1.7
	c2.7,1.7,4.6,4.7,5.9,9l17.4-2.7c-1.2-7.9-4.8-13.9-10.8-18.1c-6-4.1-14.5-5.6-25.3-4.4c-6.6,0.8-12.2,2.4-16.7,4.9
	c-4.5,2.5-7.7,5.9-9.8,10c-2.1,4.1-2.9,8.4-2.4,12.8c0.8,6.8,4.1,12.3,9.9,16.5c4.2,3,11,5.1,20.7,6.4c7.5,1,12.3,1.7,14.4,2.2
	c3.1,0.7,5.3,1.7,6.7,3c1.4,1.3,2.1,3,2.4,5c0.4,3.2-0.7,6.1-3.3,8.8c-2.6,2.7-6.7,4.4-12.3,5c-5.3,0.6-9.7-0.3-13.1-2.6
	c-3.4-2.3-6-6.3-7.6-11.9L55.1,265.2 M221.2,275.1l-19,2.1l-9.7-18.8l-34.6,3.9l-4.9,20.4l-18.5,2.1l24-90.2l18.5-2.1L221.2,275.1z
	 M185.3,244.4l-15.5-30.7l-8.1,33.4L185.3,244.4z M296.2,266.6l-1.6-14.6l-48.3,5.4l-2.6-23.5l43.4-4.9l-1.6-14.6l-43.4,4.9
	l-2.1-19.2l46.6-5.2l-1.6-14.6l-64.1,7.2l9.7,86.5L296.2,266.6z"/>
<path id="XMLID_10_" d="M22.7,488.6l-5,0.6l-2.6-5l-9.1,1l-1.3,5.4l-4.9,0.5l6.4-23.9l4.9-0.5L22.7,488.6z M13.2,480.5l-4.1-8.1
	L7,481.2L13.2,480.5z M40.1,486.7l-1.9-16.6l-4.4,0.5l0.8,7c0.3,2.4,0.3,3.9,0.2,4.5c-0.2,0.6-0.5,1.2-1,1.7
	c-0.5,0.5-1.2,0.8-1.9,0.8c-0.7,0.1-1.2,0-1.7-0.3c-0.5-0.3-0.8-0.6-1-1.1c-0.2-0.5-0.5-1.9-0.7-4.2l-0.8-7.6l-4.4,0.5l1.2,10.5
	c0.2,1.6,0.5,2.8,1,3.6c0.5,0.8,1.2,1.4,2.1,1.8c0.9,0.4,2,0.5,3.1,0.4c1.1-0.1,2.1-0.5,3-1.1c0.9-0.6,1.6-1.4,2.1-2.4l0.3,2.5
	L40.1,486.7z M47.4,469.1l-0.7-5.9l-4.1,3.1l0.4,3.3l-2,0.2l0.4,3.5l2-0.2l0.8,7.2c0.2,1.6,0.3,2.6,0.5,3.1c0.2,0.7,0.5,1.3,0.8,1.6
	c0.3,0.4,0.8,0.7,1.5,0.9c0.7,0.2,1.4,0.2,2.2,0.2c1.3-0.1,2.4-0.5,3.4-1l-0.8-3.3c-0.7,0.4-1.3,0.6-1.7,0.6c-0.3,0-0.5,0-0.8-0.1
	c-0.2-0.1-0.4-0.3-0.4-0.5c-0.1-0.2-0.2-1-0.4-2.4l-0.7-6.7l3-0.3l-0.4-3.5L47.4,469.1z M53.3,476.6c-0.2-1.5,0-2.9,0.6-4.3
	c0.6-1.4,1.5-2.6,2.7-3.5c1.2-0.9,2.7-1.4,4.3-1.6c2.5-0.3,4.7,0.3,6.4,1.7c1.8,1.4,2.8,3.4,3.1,5.9c0.3,2.5-0.3,4.7-1.7,6.5
	c-1.4,1.8-3.4,2.9-5.8,3.2c-1.5,0.2-3,0-4.5-0.5c-1.5-0.5-2.6-1.4-3.5-2.7C54.1,480,53.5,478.5,53.3,476.6 M57.9,476.3
	c0.2,1.6,0.7,2.9,1.6,3.6c0.9,0.8,1.9,1.1,3,1c1.1-0.1,2-0.7,2.7-1.6c0.7-1,0.9-2.3,0.7-3.9c-0.2-1.6-0.7-2.8-1.6-3.6
	c-0.9-0.8-1.9-1.1-3-1c-1.1,0.1-2.1,0.7-2.7,1.6C57.9,473.3,57.7,474.6,57.9,476.3 M78.5,477.2c-0.3-2.8-0.4-4.7-0.3-5.6
	c0.1-0.9,0.4-1.6,0.8-1.9c0.4-0.4,0.9-0.6,1.5-0.7c0.6-0.1,1.3,0.1,2.1,0.5l0.9-4c-1-0.4-2-0.6-3-0.5c-0.7,0.1-1.3,0.3-1.8,0.7
	c-0.5,0.4-1.1,1.2-1.6,2.4l-0.3-2.4l-4.1,0.5l1.9,16.6l4.4-0.5L78.5,477.2z M85.2,462.6l-0.4-4.1l4.4-0.5l0.5,4.1L85.2,462.6z
	 M87.3,481.4l-1.9-16.6l4.4-0.5l1.8,16.6L87.3,481.4z M111.3,478.7l-4.1,0.5l-0.3-2.4c-0.6,1-1.3,1.8-2.2,2.4
	c-0.9,0.6-1.8,0.9-2.7,1c-1.9,0.2-3.6-0.4-5.1-1.7c-1.5-1.4-2.4-3.5-2.8-6.2c-0.3-2.8,0.1-5,1.3-6.6c1.2-1.6,2.7-2.5,4.8-2.7
	c1.9-0.2,3.5,0.4,5.1,1.8l-0.9-8.2l4.4-0.5L111.3,478.7z M98.7,471.3c0.2,1.8,0.6,3,1.2,3.8c0.8,1.1,1.9,1.5,3.2,1.4
	c1-0.1,1.8-0.6,2.4-1.6c0.6-0.9,0.8-2.3,0.6-4c-0.2-1.9-0.7-3.2-1.5-4c-0.8-0.7-1.7-1.1-2.8-1c-1,0.1-1.9,0.6-2.5,1.5
	C98.7,468.4,98.5,469.7,98.7,471.3 M117.7,466.3l-4.1-0.3c0.3-1.6,0.9-2.9,1.9-3.8c1-0.9,2.6-1.5,4.7-1.7c2-0.2,3.4-0.1,4.5,0.2
	c1,0.4,1.7,0.9,2.2,1.6c0.5,0.7,0.8,1.9,1,3.9l0.5,5.1c0.2,1.5,0.3,2.5,0.6,3.2c0.2,0.7,0.6,1.4,1,2.1l-4.3,0.5
	c-0.1-0.3-0.3-0.7-0.6-1.2c-0.1-0.2-0.2-0.4-0.2-0.5c-0.7,0.8-1.4,1.4-2.2,1.9c-0.8,0.5-1.7,0.7-2.7,0.8c-1.7,0.2-3.1-0.1-4.2-0.9
	c-1.1-0.8-1.7-1.9-1.9-3.3c-0.1-0.9,0-1.8,0.4-2.6c0.4-0.8,0.9-1.4,1.7-1.9c0.8-0.5,1.9-1,3.4-1.4c2-0.6,3.4-1.1,4.1-1.6l-0.1-0.4
	c-0.1-0.8-0.4-1.4-0.8-1.7c-0.5-0.3-1.3-0.4-2.4-0.3c-0.8,0.1-1.4,0.3-1.8,0.7C118.1,464.9,117.8,465.5,117.7,466.3 M123.9,469.2
	c-0.5,0.2-1.4,0.6-2.6,1c-1.2,0.4-2,0.7-2.3,1c-0.5,0.5-0.7,1-0.7,1.6c0.1,0.6,0.4,1.1,0.9,1.5c0.5,0.4,1.1,0.6,1.8,0.5
	c0.8-0.1,1.5-0.4,2.2-1c0.5-0.4,0.8-1,0.9-1.6c0.1-0.4,0-1.1-0.1-2.1L123.9,469.2z M148.6,474.5l-4.1,0.5l-0.3-2.4
	c-0.6,1-1.3,1.8-2.2,2.4c-0.9,0.6-1.8,0.9-2.7,1c-1.9,0.2-3.6-0.4-5.1-1.7c-1.5-1.4-2.4-3.5-2.8-6.2c-0.3-2.8,0.1-5,1.3-6.6
	c1.2-1.6,2.8-2.5,4.8-2.7c1.9-0.2,3.5,0.4,5.1,1.8l-0.9-8.2l4.4-0.5L148.6,474.5z M136,467.2c0.2,1.8,0.6,3,1.2,3.8
	c0.8,1.1,1.9,1.5,3.2,1.4c1-0.1,1.8-0.6,2.4-1.6c0.6-0.9,0.8-2.3,0.6-4c-0.2-1.9-0.7-3.2-1.5-4c-0.8-0.8-1.7-1.1-2.8-1
	c-1,0.1-1.9,0.6-2.5,1.5C136,464.3,135.8,465.5,136,467.2 M162,467.7l4.5,0.2c-0.4,1.7-1.1,3-2.2,4c-1.1,1-2.6,1.5-4.4,1.8
	c-2.9,0.3-5.1-0.4-6.7-2.1c-1.3-1.4-2-3.2-2.3-5.5c-0.3-2.7,0.2-5,1.4-6.7c1.3-1.7,3-2.7,5.2-3c2.5-0.3,4.5,0.3,6.1,1.8
	c1.6,1.5,2.6,3.9,2.9,7.2l-11,1.2c0.2,1.3,0.6,2.3,1.4,2.9c0.7,0.6,1.6,0.9,2.6,0.8c0.7-0.1,1.2-0.3,1.7-0.7
	C161.5,469.2,161.8,468.5,162,467.7 M161.7,463.2c-0.2-1.3-0.6-2.2-1.3-2.8c-0.7-0.6-1.5-0.8-2.4-0.7c-1,0.1-1.7,0.6-2.3,1.3
	c-0.5,0.8-0.7,1.7-0.6,2.9L161.7,463.2z M194.8,469.3l-4.1,0.4l-0.3-2.4c-0.6,1-1.3,1.8-2.2,2.4c-0.9,0.6-1.8,0.9-2.7,1
	c-1.9,0.2-3.6-0.4-5.1-1.7c-1.5-1.4-2.4-3.4-2.8-6.2c-0.3-2.8,0.1-5,1.3-6.6c1.2-1.6,2.7-2.5,4.8-2.8c1.8-0.2,3.5,0.4,5.1,1.8
	l-0.9-8.2l4.4-0.5L194.8,469.3z M182.2,462c0.2,1.8,0.6,3,1.2,3.8c0.8,1.1,1.9,1.5,3.2,1.4c1-0.1,1.8-0.6,2.4-1.6
	c0.6-0.9,0.8-2.3,0.6-4c-0.2-1.9-0.7-3.2-1.5-4c-0.8-0.8-1.7-1.1-2.8-1c-1,0.1-1.9,0.6-2.5,1.5C182.2,459.1,182,460.3,182.2,462
	 M208.1,462.5l4.5,0.2c-0.4,1.7-1.1,3-2.2,4c-1.1,1-2.6,1.6-4.4,1.8c-2.9,0.3-5.1-0.4-6.7-2.1c-1.3-1.4-2-3.2-2.3-5.5
	c-0.3-2.7,0.2-5,1.4-6.7c1.3-1.7,3-2.7,5.2-3c2.5-0.3,4.5,0.3,6.1,1.8c1.6,1.5,2.6,3.9,2.9,7.2l-11,1.2c0.2,1.3,0.6,2.3,1.4,2.9
	c0.7,0.6,1.6,0.9,2.6,0.8c0.7-0.1,1.2-0.3,1.7-0.7C207.7,464,208,463.3,208.1,462.5 M207.9,458c-0.2-1.3-0.6-2.2-1.3-2.8
	s-1.5-0.8-2.4-0.7c-1,0.1-1.7,0.5-2.3,1.3c-0.5,0.8-0.7,1.7-0.6,3L207.9,458z M223.8,458.5c0.6,2.5,1.7,4.4,3.4,5.5
	c1.7,1.2,4,1.6,6.9,1.3c2-0.2,3.6-0.7,4.9-1.4c1.3-0.7,2.2-1.7,2.8-2.9c0.6-1.2,0.8-2.5,0.7-3.8c-0.2-1.4-0.6-2.6-1.3-3.5
	c-0.7-0.9-1.6-1.6-2.8-2c-1.1-0.4-2.9-0.8-5.2-1.1c-2.3-0.3-3.8-0.6-4.4-1c-0.5-0.3-0.8-0.8-0.8-1.3c-0.1-0.6,0.1-1.1,0.6-1.5
	c0.7-0.6,1.7-1,3.1-1.2c1.3-0.2,2.3,0,3,0.4c0.7,0.4,1.2,1.2,1.6,2.4l4.6-0.7c-0.3-2.1-1.3-3.7-2.8-4.8c-1.6-1.1-3.8-1.5-6.7-1.2
	c-1.8,0.2-3.2,0.6-4.4,1.3c-1.2,0.7-2,1.5-2.6,2.6c-0.5,1.1-0.7,2.2-0.6,3.4c0.2,1.8,1.1,3.3,2.6,4.4c1.1,0.8,2.9,1.3,5.5,1.7
	c2,0.3,3.2,0.5,3.8,0.6c0.8,0.2,1.4,0.5,1.8,0.8c0.4,0.3,0.6,0.8,0.6,1.3c0.1,0.8-0.2,1.6-0.9,2.3c-0.7,0.7-1.8,1.2-3.2,1.3
	c-1.4,0.2-2.6-0.1-3.5-0.7c-0.9-0.6-1.6-1.7-2-3.1L223.8,458.5 M256.1,457.1l4.5,0.2c-0.4,1.7-1.1,3-2.2,4c-1.1,1-2.6,1.6-4.4,1.8
	c-2.9,0.3-5.1-0.4-6.7-2.1c-1.3-1.4-2-3.2-2.3-5.5c-0.3-2.8,0.2-5,1.4-6.7c1.3-1.7,3-2.7,5.2-2.9c2.5-0.3,4.5,0.3,6.1,1.8
	c1.6,1.5,2.6,3.9,2.9,7.3l-11,1.2c0.2,1.3,0.6,2.3,1.4,2.9c0.7,0.6,1.6,0.9,2.6,0.8c0.7-0.1,1.2-0.3,1.7-0.7
	C255.7,458.6,256,458,256.1,457.1 M255.9,452.7c-0.2-1.3-0.6-2.2-1.3-2.8c-0.7-0.6-1.5-0.8-2.4-0.7c-1,0.1-1.7,0.5-2.3,1.3
	c-0.5,0.8-0.7,1.8-0.6,2.9L255.9,452.7z M264.6,462.6l5.1,0c0.2,0.6,0.4,1,0.7,1.1c0.4,0.3,1.1,0.3,2,0.2c1.1-0.1,2-0.4,2.5-0.8
	c0.4-0.3,0.6-0.7,0.7-1.2c0.1-0.4,0.1-1.1,0-2l-0.3-2.4c-1.1,1.9-2.7,3-4.7,3.2c-2.2,0.3-4.1-0.5-5.6-2.2c-1.2-1.4-1.9-3.2-2.2-5.4
	c-0.3-2.8,0.1-5,1.3-6.6c1.2-1.6,2.7-2.5,4.7-2.8c2-0.2,3.8,0.5,5.4,2.1l-0.3-2.3l4.1-0.5l1.7,14.9c0.2,2,0.2,3.4,0,4.4
	c-0.2,1-0.6,1.8-1.1,2.4c-0.5,0.6-1.3,1.1-2.2,1.6c-0.9,0.4-2.1,0.7-3.6,0.9c-2.8,0.3-4.8,0.1-6.1-0.8c-1.3-0.8-2-2-2.2-3.5
	C264.6,463,264.6,462.8,264.6,462.6 M267.4,452.4c0.2,1.8,0.7,3,1.5,3.7c0.8,0.7,1.7,1.1,2.7,0.9c1.1-0.1,1.9-0.6,2.6-1.6
	c0.6-0.9,0.9-2.2,0.7-3.8c-0.2-1.7-0.7-2.9-1.5-3.7c-0.8-0.7-1.7-1.1-2.8-0.9c-1,0.1-1.9,0.6-2.5,1.5
	C267.4,449.5,267.2,450.8,267.4,452.4 M299.4,457.6l-1.8-16.6l-4.4,0.5l0.8,7c0.3,2.4,0.3,3.9,0.2,4.5c-0.2,0.6-0.5,1.2-1,1.7
	c-0.5,0.5-1.2,0.8-1.9,0.8c-0.7,0.1-1.2,0-1.7-0.3c-0.5-0.2-0.8-0.6-1-1.1c-0.2-0.5-0.5-1.9-0.7-4.2l-0.8-7.6l-4.4,0.5l1.2,10.5
	c0.2,1.6,0.5,2.8,1,3.6c0.5,0.8,1.2,1.4,2.1,1.8c0.9,0.4,2,0.5,3.1,0.4c1.1-0.1,2.1-0.5,3-1.1c0.9-0.6,1.6-1.4,2.1-2.4l0.3,2.5
	L299.4,457.6z M307.6,451.5c-0.3-2.8-0.4-4.7-0.3-5.6c0.1-0.9,0.4-1.6,0.8-1.9c0.4-0.4,0.9-0.6,1.5-0.7c0.6-0.1,1.4,0.1,2.1,0.5
	l0.9-4c-1-0.4-2-0.6-3-0.5c-0.7,0.1-1.3,0.3-1.8,0.7c-0.5,0.4-1.1,1.2-1.6,2.4l-0.3-2.3l-4.1,0.4l1.9,16.6l4.4-0.5L307.6,451.5z
	 M318.4,443.8l-4.1-0.3c0.3-1.7,0.9-2.9,1.9-3.8c1-0.9,2.6-1.4,4.7-1.7c2-0.2,3.4-0.1,4.4,0.2c1,0.4,1.7,0.9,2.2,1.5
	c0.5,0.7,0.8,2,1,3.9l0.5,5.1c0.2,1.4,0.3,2.5,0.6,3.2c0.2,0.7,0.6,1.4,1,2.1l-4.3,0.5c-0.1-0.3-0.3-0.7-0.6-1.2
	c-0.1-0.3-0.2-0.4-0.2-0.5c-0.7,0.8-1.4,1.5-2.2,1.9c-0.8,0.5-1.7,0.7-2.7,0.8c-1.7,0.2-3.1-0.1-4.2-0.9c-1.1-0.8-1.7-1.9-1.9-3.3
	c-0.1-0.9,0-1.8,0.4-2.6c0.4-0.8,0.9-1.4,1.7-1.9c0.8-0.5,1.9-0.9,3.4-1.4c2-0.6,3.4-1.1,4.1-1.6l-0.1-0.4c-0.1-0.8-0.4-1.4-0.8-1.7
	c-0.5-0.3-1.3-0.4-2.4-0.3c-0.8,0.1-1.4,0.3-1.8,0.7C318.8,442.4,318.5,443,318.4,443.8 M324.6,446.7c-0.5,0.3-1.4,0.6-2.6,1
	c-1.2,0.4-1.9,0.7-2.3,1c-0.5,0.5-0.7,1-0.7,1.6c0.1,0.6,0.4,1.1,0.9,1.5c0.5,0.4,1.1,0.6,1.8,0.5c0.8-0.1,1.5-0.4,2.2-1
	c0.5-0.4,0.8-1,0.9-1.6c0.1-0.4,0-1.1-0.1-2.2L324.6,446.7z M348.1,441.7c-0.1-1.3-0.3-2.2-0.6-2.9c-0.2-0.7-0.6-1.2-1.1-1.7
	c-0.5-0.5-1.1-0.9-2-1.1c-0.8-0.2-1.7-0.3-2.7-0.2c-2.2,0.2-3.9,1.4-5.1,3.4l-0.3-2.4l-4.1,0.4l1.9,16.6l4.4-0.5l-0.8-7.5
	c-0.2-1.9-0.2-3.1-0.1-3.9c0.2-0.7,0.5-1.3,1-1.8c0.6-0.5,1.2-0.8,2-0.8c0.6-0.1,1.1,0,1.6,0.3c0.5,0.3,0.8,0.6,1,1.1
	c0.2,0.5,0.5,1.6,0.7,3.4l0.9,8.5l4.4-0.5L348.1,441.7z M366.8,438.2l-4.2,1.3c-0.2-0.8-0.6-1.5-1.2-1.8c-0.6-0.4-1.3-0.5-2.1-0.4
	c-1.1,0.1-1.9,0.6-2.5,1.4c-0.6,0.8-0.7,2.1-0.5,3.9c0.2,2,0.7,3.3,1.5,4.1c0.7,0.7,1.7,1,2.8,0.9c0.8-0.1,1.5-0.4,2-0.9
	c0.5-0.5,0.8-1.4,0.8-2.6l4.4,0.2c-0.2,2-0.9,3.6-2.1,4.8c-1.1,1.1-2.8,1.8-4.9,2.1c-2.4,0.3-4.5-0.3-6.1-1.6
	c-1.6-1.4-2.6-3.4-2.9-6.1c-0.3-2.7,0.2-4.9,1.5-6.6c1.3-1.7,3.1-2.7,5.6-2.9c2-0.2,3.7,0,5,0.8
	C365.1,435.3,366.1,436.5,366.8,438.2 M357,457.5l-0.2-1.8c1.1,0,2.1,0,3-0.2c0.9-0.1,1.6-0.3,2-0.7c0.3-0.3,0.4-0.6,0.4-1
	c0-0.4-0.2-0.6-0.6-0.9s-0.9-0.3-1.5-0.2c-0.7,0.1-1.3,0.2-2,0.5l0.2-1.6c0.8-0.4,1.6-0.6,2.6-0.7c1.3-0.1,2.3,0,3.1,0.5
	c0.7,0.5,1.1,1.1,1.2,2c0.1,0.9-0.2,1.7-0.9,2.4c-0.9,0.9-2.3,1.4-4.2,1.6C358.7,457.6,357.7,457.6,357,457.5 M373.4,437.6l-4.1-0.3
	c0.3-1.7,0.9-2.9,1.9-3.8c1-0.9,2.6-1.5,4.7-1.7c1.9-0.2,3.4-0.1,4.4,0.2c1,0.4,1.7,0.9,2.2,1.5c0.5,0.7,0.8,1.9,1,3.9l0.5,5.1
	c0.2,1.4,0.3,2.5,0.6,3.2s0.6,1.4,1,2.1l-4.3,0.5c-0.1-0.3-0.3-0.7-0.6-1.2c-0.1-0.2-0.2-0.4-0.2-0.5c-0.7,0.8-1.4,1.4-2.2,1.9
	c-0.8,0.5-1.7,0.7-2.7,0.8c-1.7,0.2-3.1-0.1-4.2-0.9c-1.1-0.8-1.7-1.9-1.9-3.3c-0.1-0.9,0-1.8,0.4-2.6c0.4-0.8,0.9-1.4,1.7-1.9
	c0.8-0.5,1.9-1,3.4-1.4c2-0.6,3.4-1.1,4.1-1.6l-0.1-0.4c-0.1-0.8-0.4-1.4-0.8-1.7c-0.5-0.3-1.3-0.4-2.4-0.3
	c-0.8,0.1-1.4,0.3-1.8,0.7C373.9,436.3,373.6,436.8,373.4,437.6 M379.7,440.5c-0.5,0.3-1.4,0.6-2.6,1c-1.2,0.4-2,0.7-2.3,1
	c-0.5,0.5-0.8,1-0.7,1.6c0.1,0.6,0.3,1.1,0.9,1.5c0.5,0.4,1.1,0.6,1.8,0.5c0.8-0.1,1.5-0.4,2.2-1c0.5-0.5,0.8-1,0.9-1.6
	c0.1-0.4,0-1.1-0.1-2.1L379.7,440.5z M381.5,370.4l0.6,5l-5,2.6l1,9.1l5.4,1.3l0.5,4.9l-23.9-6.4l-0.5-4.9L381.5,370.4z
	 M373.4,379.9l-8.1,4.1l8.8,2.1L373.4,379.9z M380.7,363.6l-22.9,2.5l0.5,4.4l22.9-2.5L380.7,363.6z M361.4,361.2l-4.1,0.4l-0.5-4.4
	l4.1-0.4L361.4,361.2z M380.2,359.1l-16.6,1.8l-0.5-4.4l16.6-1.8L380.2,359.1z M379.3,350.6l-0.5-4.4l-8.1,0.9
	c-1.6,0.2-2.7,0.2-3.5,0c-0.7-0.2-1.3-0.5-1.7-1c-0.4-0.5-0.7-1.1-0.7-1.8c-0.1-0.5,0-1,0.2-1.4c0.2-0.4,0.5-0.6,1-0.8
	c0.5-0.2,1.5-0.4,3.1-0.6l9.1-1l-0.5-4.4l-8,0.9c-1.6,0.2-2.7,0.2-3.5,0c-0.7-0.2-1.3-0.5-1.8-1c-0.4-0.5-0.7-1-0.7-1.7
	c-0.1-0.8,0.1-1.5,0.7-2c0.4-0.3,1.5-0.6,3.1-0.8l9.5-1l-0.5-4.4l-10.6,1.2c-1.6,0.2-2.7,0.4-3.4,0.8c-0.9,0.5-1.6,1.2-2,2.1
	c-0.4,0.9-0.5,1.9-0.4,3.2c0.1,1,0.4,1.8,1,2.6c0.5,0.8,1.3,1.5,2.2,2.1c-0.8,0.6-1.4,1.3-1.8,2.1c-0.4,0.8-0.5,1.8-0.4,2.8
	c0.2,2,1.3,3.6,3.2,4.9l-2.3,0.2l0.4,4L379.3,350.6z M369.7,312.8l0.3-4.5c1.7,0.4,3,1.1,3.9,2.3c1,1.1,1.6,2.6,1.8,4.4
	c0.3,2.9-0.4,5.1-2.1,6.7c-1.4,1.3-3.2,2-5.5,2.3c-2.7,0.3-5-0.2-6.7-1.4c-1.7-1.3-2.7-3-2.9-5.2c-0.3-2.5,0.3-4.5,1.8-6.1
	c1.5-1.6,3.9-2.6,7.3-2.9l1.2,11c1.3-0.2,2.3-0.6,2.9-1.4c0.6-0.8,0.9-1.6,0.8-2.6c-0.1-0.7-0.3-1.2-0.8-1.7
	C371.3,313.2,370.6,313,369.7,312.8 M365.3,313.1c-1.3,0.2-2.2,0.6-2.8,1.3c-0.6,0.7-0.8,1.5-0.7,2.4c0.1,0.9,0.5,1.7,1.3,2.2
	c0.8,0.5,1.7,0.7,2.9,0.6L365.3,313.1z M362.2,290.1c-1.3,0.1-2.3,0.3-2.9,0.6c-0.7,0.2-1.3,0.6-1.7,1.1c-0.5,0.5-0.9,1.1-1.1,2
	c-0.3,0.8-0.3,1.7-0.2,2.7c0.2,2.2,1.4,3.9,3.4,5.1l-2.4,0.3l0.4,4.1l16.6-1.8l-0.5-4.4l-7.5,0.8c-1.8,0.2-3.1,0.2-3.8,0.1
	c-0.7-0.2-1.3-0.5-1.8-1.1c-0.5-0.6-0.8-1.2-0.8-2c-0.1-0.6,0-1.1,0.3-1.6c0.2-0.4,0.6-0.8,1.1-1c0.5-0.2,1.7-0.5,3.4-0.7l8.5-0.9
	l-0.5-4.4L362.2,290.1z M354.9,281.7l-5.9,0.7l3,4.1l3.3-0.4l0.2,2l3.5-0.4l-0.2-2l7.2-0.8c1.5-0.2,2.6-0.3,3.1-0.5
	c0.7-0.2,1.3-0.5,1.6-0.8c0.4-0.3,0.7-0.8,0.9-1.5c0.2-0.7,0.2-1.4,0.2-2.2c-0.1-1.3-0.5-2.4-1-3.4l-3.4,0.7
	c0.4,0.7,0.6,1.3,0.6,1.7c0,0.3,0,0.5-0.1,0.8c-0.1,0.2-0.3,0.4-0.5,0.4c-0.2,0.1-1,0.2-2.4,0.3l-6.7,0.7l-0.3-3l-3.5,0.4
	L354.9,281.7z M358.9,271.9l-0.3,4.1c-1.7-0.3-2.9-0.9-3.8-1.9c-0.9-1-1.5-2.6-1.7-4.7c-0.2-2-0.1-3.4,0.2-4.4
	c0.4-1,0.9-1.7,1.5-2.2c0.7-0.5,1.9-0.8,3.9-1l5.1-0.5c1.5-0.2,2.5-0.3,3.2-0.6c0.7-0.2,1.4-0.6,2.1-1l0.5,4.3
	c-0.3,0.1-0.7,0.3-1.2,0.5c-0.2,0.1-0.4,0.2-0.5,0.2c0.8,0.7,1.4,1.4,1.9,2.2c0.5,0.8,0.7,1.7,0.8,2.7c0.2,1.7-0.1,3.1-0.9,4.2
	c-0.8,1.1-1.9,1.7-3.3,1.9c-0.9,0.1-1.8,0-2.6-0.4c-0.8-0.4-1.4-0.9-1.9-1.7c-0.5-0.8-0.9-1.9-1.4-3.4c-0.6-2-1.1-3.4-1.5-4.1
	l-0.4,0.1c-0.8,0.1-1.4,0.4-1.7,0.8c-0.3,0.4-0.4,1.3-0.3,2.4c0.1,0.8,0.3,1.4,0.7,1.8C357.5,271.4,358.1,271.7,358.9,271.9
	 M361.8,265.6c0.2,0.5,0.6,1.4,1,2.6c0.4,1.2,0.7,2,1,2.3c0.5,0.5,1,0.7,1.6,0.7c0.6-0.1,1.1-0.4,1.5-0.9c0.4-0.5,0.5-1.1,0.5-1.8
	c-0.1-0.8-0.4-1.5-1-2.2c-0.4-0.5-1-0.8-1.6-0.9c-0.4-0.1-1.1,0-2.2,0.1L361.8,265.6z M363.2,252.5c-2.8,0.3-4.7,0.4-5.6,0.2
	c-0.9-0.1-1.6-0.4-2-0.8c-0.4-0.4-0.6-0.9-0.7-1.5c-0.1-0.6,0.1-1.3,0.5-2.1l-4-0.9c-0.4,1-0.6,2-0.5,3c0.1,0.7,0.3,1.3,0.7,1.8
	c0.4,0.5,1.2,1.1,2.4,1.6l-2.4,0.3l0.4,4.1l16.6-1.8l-0.5-4.4L363.2,252.5z M360.1,225.8l0.3-4.5c1.7,0.4,3,1.1,3.9,2.2
	c1,1.1,1.6,2.6,1.8,4.4c0.3,2.9-0.4,5.1-2.1,6.7c-1.4,1.3-3.2,2-5.5,2.3c-2.7,0.3-5-0.2-6.7-1.4c-1.7-1.3-2.7-3-2.9-5.2
	c-0.3-2.5,0.3-4.5,1.8-6.1c1.5-1.6,3.9-2.6,7.3-2.9l1.2,11c1.3-0.2,2.3-0.6,2.9-1.4c0.6-0.8,0.9-1.6,0.8-2.6
	c-0.1-0.7-0.3-1.2-0.7-1.7C361.6,226.2,361,225.9,360.1,225.8 M355.7,226c-1.3,0.2-2.2,0.6-2.8,1.3c-0.6,0.7-0.8,1.5-0.7,2.4
	c0.1,1,0.5,1.7,1.3,2.3c0.8,0.5,1.7,0.7,2.9,0.6L355.7,226z M361.6,190.7l-3.9,0.4l1.4,12.8l-6.2,0.7l-1.3-11.5l-3.9,0.4l1.3,11.5
	l-5.1,0.6l-1.4-12.4l-3.9,0.4l1.9,17l22.9-2.5L361.6,190.7z M347.9,173.6c-1.7,0.7-2.9,1.7-3.7,3c-0.7,1.3-1,2.9-0.8,5
	c0.3,2.5,1.2,4.3,2.9,5.6c1.7,1.3,3.9,1.8,6.6,1.5c2.7-0.3,4.7-1.2,6.1-2.9c1.4-1.6,1.9-3.6,1.7-6c-0.2-2.1-0.9-3.8-2.1-4.9
	c-1.1-1.1-2.7-1.8-4.8-2.1l-0.3,4.4c1.2,0.1,2,0.4,2.6,0.9c0.5,0.5,0.8,1.1,0.9,2c0.1,1.1-0.2,2-0.9,2.8c-0.7,0.7-2.1,1.2-4,1.4
	c-1.8,0.2-3.1,0-3.9-0.6c-0.8-0.6-1.3-1.4-1.4-2.5c-0.1-0.8,0.1-1.5,0.4-2.1c0.4-0.6,1-1,1.8-1.2L347.9,173.6 M350.8,171
	c-1.5,0.1-2.9,0-4.3-0.6c-1.4-0.6-2.6-1.5-3.5-2.7c-0.9-1.2-1.4-2.7-1.6-4.3c-0.3-2.5,0.3-4.7,1.8-6.4c1.5-1.8,3.4-2.8,5.9-3.1
	c2.5-0.3,4.7,0.3,6.5,1.7c1.8,1.4,2.9,3.4,3.1,5.8c0.2,1.5,0,3-0.5,4.5c-0.5,1.5-1.4,2.6-2.7,3.5C354.2,170.2,352.7,170.8,350.8,171
	 M350.5,166.5c1.6-0.2,2.9-0.7,3.6-1.6c0.8-0.9,1.1-1.9,1-3c-0.1-1.2-0.7-2.1-1.6-2.7c-0.9-0.7-2.3-0.9-3.9-0.7
	c-1.6,0.2-2.8,0.7-3.6,1.6c-0.8,0.9-1.1,1.9-1,3c0.1,1.1,0.7,2.1,1.6,2.8C347.6,166.4,348.9,166.6,350.5,166.5 M345,135.6
	c-1.3,0.2-2.3,0.3-2.9,0.6c-0.7,0.2-1.2,0.6-1.7,1.1c-0.5,0.5-0.9,1.1-1.1,2c-0.3,0.8-0.3,1.7-0.2,2.7c0.2,2.2,1.4,3.9,3.4,5.1
	l-2.4,0.3l0.5,4.1l16.6-1.8l-0.5-4.4L349,146c-1.8,0.2-3.1,0.2-3.8,0.1c-0.7-0.2-1.3-0.5-1.8-1.1c-0.5-0.5-0.8-1.2-0.8-2
	c-0.1-0.6,0-1.1,0.3-1.6c0.2-0.4,0.6-0.8,1.1-1c0.5-0.2,1.7-0.5,3.4-0.7l8.5-0.9l-0.5-4.4L345,135.6z M335.7,126.7l-4.9-1.6
	l-0.5-4.9l5.1,3.8L335.7,126.7z M346.4,131.9c-1.5,0.2-2.9,0-4.3-0.6c-1.4-0.6-2.6-1.5-3.5-2.7c-0.9-1.2-1.4-2.7-1.6-4.3
	c-0.3-2.5,0.3-4.6,1.8-6.4c1.5-1.8,3.4-2.8,5.9-3.1c2.5-0.3,4.7,0.3,6.5,1.7c1.8,1.4,2.9,3.4,3.1,5.8c0.2,1.5,0,3-0.5,4.5
	c-0.5,1.5-1.4,2.6-2.7,3.5C349.9,131.2,348.3,131.7,346.4,131.9 M346.2,127.4c1.6-0.2,2.9-0.7,3.6-1.6c0.8-0.9,1.1-1.9,1-3
	c-0.1-1.1-0.7-2.1-1.6-2.7c-0.9-0.7-2.3-0.9-3.9-0.7c-1.6,0.2-2.8,0.7-3.6,1.6c-0.8,0.9-1.1,1.9-1,3c0.1,1.1,0.7,2.1,1.6,2.7
	C343.2,127.3,344.5,127.6,346.2,127.4 M352.7,110.8l-0.5-4.4l-8.1,0.9c-1.6,0.2-2.7,0.2-3.5,0c-0.7-0.2-1.3-0.5-1.7-1
	c-0.4-0.5-0.7-1.1-0.7-1.8c-0.1-0.6,0-1,0.2-1.4c0.2-0.4,0.5-0.6,1-0.8c0.4-0.2,1.5-0.4,3.1-0.6l9.1-1l-0.5-4.4l-8,0.9
	c-1.6,0.2-2.7,0.2-3.5,0c-0.7-0.2-1.3-0.5-1.8-1c-0.4-0.5-0.7-1-0.7-1.7c-0.1-0.8,0.1-1.5,0.7-2c0.4-0.3,1.5-0.6,3.1-0.8l9.5-1
	l-0.5-4.4l-10.6,1.2c-1.6,0.2-2.7,0.4-3.4,0.8c-0.9,0.5-1.6,1.2-2,2.1c-0.4,0.9-0.5,1.9-0.4,3.2c0.1,1,0.4,1.8,1,2.6
	c0.5,0.8,1.3,1.5,2.2,2.1c-0.8,0.6-1.4,1.3-1.8,2.1c-0.4,0.8-0.5,1.8-0.4,2.8c0.2,2,1.3,3.6,3.2,4.9l-2.3,0.2l0.4,4L352.7,110.8z
	 M330.7,84.1l-4.1,0.4l-0.5-4.4l4.1-0.4L330.7,84.1z M349.5,82L333,83.8l-0.5-4.4l16.6-1.8L349.5,82z M335.3,60
	c-1.7,0.7-2.9,1.7-3.7,3c-0.7,1.3-1,2.9-0.8,5c0.3,2.5,1.2,4.3,2.9,5.6c1.7,1.3,3.9,1.8,6.6,1.5c2.7-0.3,4.7-1.2,6.1-2.9
	c1.4-1.6,1.9-3.6,1.7-6.1c-0.2-2.1-0.9-3.8-2.1-4.9c-1.1-1.2-2.7-1.8-4.8-2.1l-0.3,4.4c1.2,0.1,2,0.4,2.6,0.9c0.5,0.5,0.8,1.1,0.9,2
	c0.1,1.1-0.2,2-0.9,2.8c-0.7,0.7-2.1,1.2-4,1.5c-1.8,0.2-3.1,0-3.9-0.6c-0.8-0.6-1.3-1.4-1.4-2.5c-0.1-0.8,0.1-1.5,0.4-2.1
	c0.4-0.6,1-1,1.8-1.2L335.3,60 M334.7,53.4l-0.3,4.1c-1.6-0.3-2.9-0.9-3.8-1.9c-0.9-1-1.4-2.6-1.7-4.7c-0.2-2-0.1-3.4,0.2-4.5
	c0.4-1,0.9-1.7,1.5-2.2c0.7-0.5,1.9-0.8,3.9-1l5.1-0.5c1.4-0.2,2.5-0.3,3.2-0.6c0.7-0.2,1.4-0.6,2.1-1l0.5,4.3
	c-0.3,0.2-0.7,0.3-1.3,0.6c-0.2,0.1-0.4,0.2-0.5,0.2c0.8,0.7,1.4,1.4,1.9,2.2c0.5,0.8,0.7,1.7,0.8,2.7c0.2,1.7-0.1,3.1-0.9,4.2
	c-0.8,1.1-1.9,1.7-3.3,1.9c-0.9,0.1-1.8,0-2.6-0.4c-0.8-0.4-1.4-0.9-1.9-1.7c-0.5-0.8-0.9-1.9-1.4-3.4c-0.6-2-1.1-3.4-1.5-4.1
	l-0.4,0.1c-0.8,0.1-1.4,0.4-1.7,0.8c-0.3,0.5-0.4,1.3-0.3,2.4c0.1,0.8,0.3,1.4,0.7,1.8C333.3,52.9,333.9,53.2,334.7,53.4
	 M337.6,47.1c0.2,0.5,0.6,1.4,1,2.6c0.4,1.2,0.7,2,1,2.3c0.5,0.5,1,0.8,1.6,0.7c0.6-0.1,1.1-0.4,1.5-0.9c0.4-0.5,0.5-1.1,0.5-1.8
	c-0.1-0.8-0.4-1.5-1-2.2c-0.4-0.5-1-0.8-1.6-0.9c-0.4-0.1-1.1-0.1-2.2,0.1L337.6,47.1z"/>
<polygon id="XMLID_1_" class="st2" points="419.2,469.8 -40.5,520.6 -90,71.3 369.6,20.6 "/>
</svg>
